<?xml version="1.0" standalone="no"?>
<!DOCTYPE svg PUBLIC "-//W3C//DTD SVG 20010904//EN"
 "http://www.w3.org/TR/2001/REC-SVG-20010904/DTD/svg10.dtd">
<svg version="1.0" xmlns="http://www.w3.org/2000/svg"
 width="500.000000pt" height="500.000000pt" viewBox="0 0 500.000000 500.000000"
 preserveAspectRatio="xMidYMid meet">

<g transform="translate(0.000000,500.000000) scale(0.100000,-0.100000)"
fill="#000000" stroke="none">
<path fill="#5658DD" d="M2380 3464 c-322 -47 -582 -225 -737 -504 -57 -101 -119 -308 -90
-297 7 3 67 28 133 56 67 28 127 51 134 51 6 0 67 -39 136 -86 107 -73 125
-83 130 -67 39 117 116 208 217 258 133 65 254 66 386 3 l63 -30 137 64 136
65 17 124 c27 202 30 188 -55 237 -149 85 -328 133 -491 131 -50 -1 -102 -3
-116 -5z"/>
<path fill="#FFFFFF" d="M3096 3096 l-18 -153 -139 -68 c-77 -38 -139 -70 -139 -71 0 -2 15
-23 33 -47 64 -84 82 -140 82 -257 0 -97 -2 -110 -32 -172 -36 -77 -94 -144
-162 -187 l-47 -31 -12 -157 c-7 -86 -10 -158 -9 -160 2 -2 57 -43 123 -93
l119 -89 55 31 c158 88 268 189 360 329 96 146 146 297 157 475 16 268 -81
530 -271 732 -84 89 -80 93 -100 -82z"/>
<path fill="#ff5757" d="M1671 2646 l-144 -60 6 -120 c7 -135 22 -207 68 -327 54 -139 177
-301 314 -412 46 -37 163 -101 235 -130 193 -76 471 -83 645 -17 27 10 25 12
-89 98 l-117 87 5 70 c3 39 8 110 12 158 l7 88 -74 -7 c-134 -12 -257 35 -350
133 -69 72 -109 162 -116 257 l-6 75 -126 84 -126 84 -144 -61z"/>
<path fill="#FFFFFF" d="M2467 2517 c-37 -94 -68 -178 -67 -184 0 -7 6 -13 13 -13 11 0 148
331 147 358 0 6 -6 12 -12 12 -7 0 -44 -78 -81 -173z"/>
<path fill="#FFFFFF" d="M2306 2570 c-42 -33 -76 -62 -76 -65 0 -7 152 -125 161 -125 25 0 2
34 -51 76 -33 26 -60 48 -60 49 0 1 27 23 60 49 53 42 76 76 51 76 -4 0 -43
-27 -85 -60z"/>
<path fill="#FFFFFF" d="M2560 2617 c0 -9 27 -37 60 -62 33 -25 60 -48 60 -50 0 -2 -27 -25
-60 -51 -56 -44 -81 -84 -44 -70 26 10 153 110 153 121 0 11 -127 111 -153
121 -10 4 -16 1 -16 -9z"/>
</g>
</svg>
